<?xml version="1.0" encoding="UTF-8"?>
<svg id="katman_1" xmlns="http://www.w3.org/2000/svg" viewBox="0 0 900 814.39">
  <defs>
    <style>
      .cls-1 {
        fill: #b91b7f;
      }

      .cls-2 {
        fill: #ef7c3c;
      }

      .cls-3 {
        fill: #991b7a;
      }

      .cls-4 {
        fill: #7f195a;
      }

      .cls-5 {
        fill: #f28f49;
      }

      .cls-6 {
        fill: #ca1b7b;
      }

      .cls-7 {
        fill: #ec634b;
      }

      .cls-8 {
        fill: #7c2c87;
      }

      .cls-9 {
        fill: #154955;
      }

      .cls-10 {
        fill: #c5171c;
      }

      .cls-11 {
        fill: #f59e37;
      }

      .cls-12 {
        fill: #e84627;
      }

      .cls-13 {
        fill: #c21b7d;
      }

      .cls-14 {
        fill: #fcc039;
      }

      .cls-15 {
        fill: #ec6320;
      }

      .cls-16 {
        fill: #eb5a47;
      }

      .cls-17 {
        fill: #822a86;
      }

      .cls-18 {
        fill: #ee7141;
      }

      .cls-19 {
        fill: #f39036;
      }

      .cls-20 {
        fill: #fab532;
      }

      .cls-21 {
        fill: #de0a14;
      }

      .cls-22 {
        fill: #fbba39;
      }

      .cls-23 {
        fill: #e52f18;
      }

      .cls-24 {
        fill: #8b2d87;
      }

      .cls-25 {
        fill: #b91c7e;
      }

      .cls-26 {
        fill: #fbdb3f;
      }

      .cls-27 {
        fill: #ec641d;
      }

      .cls-28 {
        fill: #ec634a;
      }

      .cls-29 {
        fill: #e52d1a;
      }

      .cls-30 {
        fill: #ec641f;
      }

      .cls-31 {
        fill: #d51878;
      }

      .cls-32 {
        fill: #b32a87;
      }

      .cls-33 {
        fill: #f69f32;
      }

      .cls-34 {
        fill: #e72b65;
      }

      .cls-35 {
        fill: #ea514f;
      }

      .cls-36 {
        fill: #ce1762;
      }

      .cls-37 {
        fill: #e52e16;
      }

      .cls-38 {
        fill: #e02b59;
      }

      .cls-39 {
        fill: #f0823a;
      }

      .cls-40 {
        fill: #d4102b;
      }

      .cls-41 {
        fill: #f49930;
      }
    </style>
  </defs>
  <polygon class="cls-11" points="113.6 137.87 76.41 41.9 113.6 62.86 113.6 137.87"/>
  <polygon class="cls-39" points="190.68 105.52 113.6 137.87 113.6 62.86 190.68 105.52"/>
  <polygon class="cls-15" points="179.86 163.55 113.6 137.87 190.68 105.52 179.86 163.55"/>
  <polygon class="cls-15" points="210.96 174.37 179.86 163.55 190.68 105.52 210.96 174.37"/>
  <polygon class="cls-40" points="243.42 135.17 210.96 174.37 190.68 105.52 243.42 135.17"/>
  <polygon class="cls-23" points="286.69 158.15 210.96 174.37 243.42 135.17 286.69 158.15"/>
  <path class="cls-15" d="M320.5,216.27c-10.82,0-109.54-41.9-109.54-41.9l75.73-16.22,33.81,58.12Z"/>
  <polygon class="cls-5" points="390.82 216.27 320.5 216.27 286.69 158.15 390.82 216.27"/>
  <polygon class="cls-15" points="217.05 192.64 239.36 254.12 178.51 183.83 217.05 192.64"/>
  <polygon class="cls-15" points="248.83 199.9 239.36 254.12 217.05 192.64 248.83 199.9"/>
  <polygon class="cls-23" points="286.69 208.55 239.36 254.12 248.83 199.9 286.69 208.55"/>
  <polygon class="cls-27" points="320.5 216.27 239.36 254.12 286.69 208.55 320.5 216.27"/>
  <polygon class="cls-23" points="355.66 271.69 239.36 254.12 320.5 216.27 355.66 271.69"/>
  <polygon class="cls-27" points="411.11 271.69 355.66 271.69 320.5 216.27 411.11 271.69"/>
  <polygon class="cls-10" points="390.82 216.27 411.11 271.69 320.5 216.27 390.82 216.27"/>
  <polygon class="cls-21" points="417.87 204.11 435.45 254.12 390.82 216.27 417.87 204.11"/>
  <polygon class="cls-37" points="411.11 271.69 435.45 254.12 390.82 216.27 411.11 271.69"/>
  <polygon class="cls-35" points="417.87 204.11 435.45 254.12 428.69 148.69 417.87 204.11"/>
  <polygon class="cls-15" points="394.88 148.69 428.69 148.69 428.69 107.67 394.88 148.69"/>
  <polygon class="cls-14" points="382.71 129.76 373.24 160.85 394.88 148.69 382.71 129.76"/>
  <polygon class="cls-41" points="428.69 107.67 382.71 129.76 394.88 148.69 428.69 107.67"/>
  <polygon class="cls-26" points="523.35 62.18 428.69 107.67 494.15 101.38 523.35 62.18"/>
  <polygon class="cls-19" points="494.15 101.38 428.69 107.67 476.02 125.71 494.15 101.38"/>
  <polygon class="cls-22" points="428.69 148.69 476.02 125.71 428.69 107.67 428.69 148.69"/>
  <polygon class="cls-35" points="515.24 216.27 486.84 202.75 461.42 254.12 515.24 216.27"/>
  <polygon class="cls-5" points="515.24 216.27 576.09 220.33 613.96 159.5 515.24 216.27"/>
  <polygon class="cls-15" points="613.96 159.5 692.92 174.37 576.09 220.33 613.96 159.5"/>
  <polygon class="cls-15" points="785.03 137.87 719.74 163.55 709.3 108.14 785.03 137.87"/>
  <polygon class="cls-39" points="786.38 63.77 709.3 108.23 785.03 137.87 786.38 63.77"/>
  <polygon class="cls-11" points="785.03 137.87 786.38 63.77 825.45 42.21 785.03 137.87"/>
  <polygon class="cls-20" points="900 .38 785.03 137.87 825.45 42.21 900 .38"/>
  <polygon class="cls-23" points="692.39 174.37 658.91 135.17 613.42 159.5 692.39 174.37"/>
  <polygon class="cls-40" points="709.3 108.14 658.76 135.17 692.25 174.37 709.3 108.14"/>
  <polygon class="cls-23" points="692.29 174.37 719.78 163.55 709.33 108.14 692.29 174.37"/>
  <polygon class="cls-2" points="279.93 271.69 355.66 271.69 340.79 325.76 279.93 271.69"/>
  <polygon class="cls-16" points="411.11 271.69 355.66 271.69 340.79 325.76 411.11 271.69"/>
  <polygon class="cls-30" points="423.28 333.87 435.45 254.12 411.11 271.69 423.28 333.87"/>
  <polygon class="cls-12" points="340.79 325.76 383.26 329.93 411.11 271.69 340.79 325.76"/>
  <polygon class="cls-12" points="383.26 329.93 423.28 333.87 411.11 271.69 383.26 329.93"/>
  <polygon class="cls-10" points="423.28 333.87 449.42 293.99 481.43 333.87 423.28 333.87"/>
  <polygon class="cls-37" points="435.45 254.12 449.42 293.99 423.28 333.87 435.45 254.12"/>
  <polygon class="cls-10" points="543.64 271.69 563.92 324.41 488.33 271.69 543.64 271.69"/>
  <polygon class="cls-10" points="461.42 254.12 488.33 271.69 481.43 333.87 461.42 254.12"/>
  <polygon class="cls-27" points="515.24 329.99 563.92 324.41 488.33 271.69 515.24 329.99"/>
  <polygon class="cls-37" points="576.09 220.33 488.33 271.69 543.64 271.69 576.09 220.33"/>
  <polygon class="cls-10" points="576.09 220.33 488.33 271.69 515.24 216.27 576.09 220.33"/>
  <polygon class="cls-10" points="461.42 254.12 449.42 293.99 435.45 254.12 461.42 254.12"/>
  <polygon class="cls-37" points="481.43 333.87 449.42 293.99 461.42 254.12 481.43 333.87"/>
  <polygon class="cls-27" points="461.42 254.12 488.33 271.69 515.24 216.27 461.42 254.12"/>
  <polygon class="cls-18" points="486.84 202.75 476.02 125.71 461.42 254.12 486.84 202.75"/>
  <polygon class="cls-18" points="435.45 254.12 461.42 254.12 428.69 148.69 435.45 254.12"/>
  <polygon class="cls-37" points="481.43 333.87 488.33 271.69 515.24 329.99 481.43 333.87"/>
  <polygon class="cls-2" points="623.42 271.69 563.92 324.41 543.64 271.69 623.42 271.69"/>
  <polygon class="cls-10" points="576.09 220.33 543.64 271.69 662.64 255.47 576.09 220.33"/>
  <polygon class="cls-39" points="722.14 182.48 662.64 255.47 682.95 192.64 722.14 182.48"/>
  <polygon class="cls-7" points="576.09 220.33 662.64 255.47 619.37 209.11 576.09 220.33"/>
  <polygon class="cls-37" points="682.95 192.64 654.93 199.9 662.64 255.47 682.95 192.64"/>
  <polygon class="cls-10" points="619.37 209.11 654.93 199.9 662.64 255.47 619.37 209.11"/>
  <polygon class="cls-20" points="113.6 137.87 0 0 76.41 41.9 113.6 137.87"/>
  <polygon class="cls-33" points="428.69 148.69 476.02 125.71 461.42 254.12 428.69 148.69"/>
  <polygon class="cls-29" points="423.28 333.87 426.66 354.14 448.43 333.87 423.28 333.87"/>
  <polygon class="cls-29" points="476.02 352.12 448.43 333.87 481.43 333.87 476.02 352.12"/>
  <polygon class="cls-28" points="426.66 354.14 452.35 390.64 448.43 333.87 426.66 354.14"/>
  <polygon class="cls-28" points="476.02 352.12 452.35 390.64 448.43 333.87 476.02 352.12"/>
  <polygon class="cls-8" points="431.05 484.01 404.68 635.97 390.82 583.54 431.05 484.01"/>
  <polygon class="cls-34" points="452.35 390.66 409.76 430.58 426.66 354.14 452.35 390.66"/>
  <polygon class="cls-3" points="390.82 583.54 382.71 552.84 431.05 484.01 390.82 583.54"/>
  <polygon class="cls-36" points="409.76 430.57 436.35 453.49 452.35 390.64 409.76 430.57"/>
  <polygon class="cls-6" points="382.71 552.84 403.67 458.08 431.05 484.01 382.71 552.84"/>
  <polygon class="cls-38" points="409.76 430.57 431.05 484.01 436.35 453.49 409.76 430.57"/>
  <polygon class="cls-1" points="403.67 458.08 409.76 430.57 431.05 484.01 403.67 458.08"/>
  <polygon class="cls-34" points="452.35 390.64 498.33 445.79 476.02 352.12 452.35 390.64"/>
  <polygon class="cls-31" points="436.35 453.49 453.03 520.4 419.4 583.54 436.35 453.49"/>
  <polygon class="cls-36" points="452.35 390.64 498.33 445.79 467.46 452.66 452.35 390.64"/>
  <polygon class="cls-8" points="497.08 635.44 474.94 498.79 513.02 584.09 497.08 635.44"/>
  <polygon class="cls-1" points="498.33 445.79 474.94 498.79 504.37 471.13 498.33 445.79"/>
  <polygon class="cls-3" points="513.02 584.09 523.21 550.81 474.94 498.79 513.02 584.09"/>
  <polygon class="cls-6" points="504.37 471.13 523.35 550.81 474.94 498.79 504.37 471.13"/>
  <polygon class="cls-1" points="419.4 583.54 405.7 688.69 453.03 520.4 419.4 583.54"/>
  <polygon class="cls-31" points="467.46 452.66 453.03 520.4 485.8 604.54 467.46 452.66"/>
  <polygon class="cls-32" points="485.8 604.54 405.7 688.69 489.88 646.62 485.8 604.54"/>
  <polygon class="cls-17" points="494.15 690.71 453.03 717.75 489.88 646.62 494.15 690.71"/>
  <polygon class="cls-13" points="494.15 690.71 449.42 814.39 453.03 717.75 494.15 690.71"/>
  <polygon class="cls-24" points="405.7 688.69 449.42 814.39 453.03 717.75 405.7 688.69"/>
  <polygon class="cls-4" points="485.8 604.54 405.7 688.69 453.03 520.4 485.8 604.54"/>
  <polygon class="cls-4" points="436.35 453.49 453.03 520.4 467.46 452.66 436.35 453.49"/>
  <polygon class="cls-25" points="452.35 390.64 467.46 452.66 436.35 453.49 452.35 390.64"/>
  <polygon class="cls-13" points="405.7 688.6 453.03 717.75 489.88 646.62 405.7 688.6"/>
  <polygon class="cls-9" points="475.37 496.46 472.98 483.91 498.33 445.79 475.37 496.46"/>
  <polygon class="cls-38" points="467.46 452.66 472.62 484.45 498.33 445.79 467.46 452.66"/>
  <polygon class="cls-38" points="474.94 498.79 472.62 484.45 498.33 445.79 474.94 498.79"/>
</svg>